<?xml version="1.0" encoding="UTF-8"?>
<svg xmlns="http://www.w3.org/2000/svg" onmouseup="{ if(window.parent.document.onmouseup) window.parent.document.onmouseup(arguments[0]);}" viewBox="0 0 32 32" data-name="S CheckmarkCircle 18 N 2x" id="S_CheckmarkCircle_18_N_2x"><defs><style>.cls-1{fill:#fff;}.cls-2{fill:#f27070;}</style></defs><ellipse data-cppathid="10000" ry="13.75" rx="14.27" cy="15.84" cx="15.97" class="cls-1"/><path data-cppathid="10001" transform="translate(-2 -2)" d="M18,2A16,16,0,1,0,34,18,16,16,0,0,0,18,2Zm10.67,9.08L16,27.34a1.2,1.2,0,0,1-.88.46h-.07a1.19,1.19,0,0,1-.85-.35L6.44,19.66a1.21,1.21,0,0,1,0-1.7h0l1.32-1.33a1.2,1.2,0,0,1,1.7,0h0L14.8,22,25.31,8.47A1.21,1.21,0,0,1,27,8.26h0L28.45,9.4A1.2,1.2,0,0,1,28.67,11.08Z" class="cls-2"/></svg>