<?xml version="1.0" encoding="UTF-8"?>
<svg xmlns="http://www.w3.org/2000/svg" onmouseup="{ if(window.parent.document.onmouseup) window.parent.document.onmouseup(arguments[0]);}" xml:space="preserve" style="enable-background:new 0 0 48.3 48;" viewBox="0 0 48.3 48" y="0px" x="0px" id="S_Home_18_N_2x" version="1.1" xmlns:xlink="http://www.w3.org/1999/xlink"><style type="text/css">
	.st0{fill:#FFFFFF;stroke:#F27070;stroke-width:2;stroke-miterlimit:10;}
	.st1{fill:#F27070;}
</style><circle data-cppathid="10000" r="22.6" cy="24" cx="24.1" class="st0"/><path data-cppathid="10001" d="M41.5,22.5L24.9,5.9c-0.4-0.4-1.1-0.4-1.5,0L6.8,22.5c-0.4,0.4-0.4,1.1,0,1.5l2,2c0.2,0.2,0.4,0.3,0.7,0.3h0.7  v9c0,0.6,0.4,1,1,1h8c0.6,0,1-0.4,1-1v-10c0-0.6,0.4-1,1-1h6c0.6,0,1,0.4,1,1v10c0,0.6,0.4,1,1,1h8c0.6,0,1-0.4,1-1v-9h0.7  c0.3,0,0.5-0.1,0.7-0.3l2-2C41.9,23.5,41.9,22.9,41.5,22.5z" class="st1"/></svg>